<svg width="20" height="20" viewBox="0 0 20 20" fill="none" xmlns="http://www.w3.org/2000/svg">
<path fill-rule="evenodd" clip-rule="evenodd" d="M6.6665 0.833313C7.12674 0.833313 7.49984 1.20641 7.49984 1.66665V2.49998H12.4998V1.66665C12.4998 1.20641 12.8729 0.833313 13.3332 0.833313C13.7934 0.833313 14.1665 1.20641 14.1665 1.66665V2.50133C14.5627 2.50406 14.909 2.51224 15.2097 2.53681C15.6781 2.57508 16.1087 2.65722 16.5131 2.86329C17.1403 3.18287 17.6503 3.6928 17.9699 4.32001C18.1759 4.72446 18.2581 5.15504 18.2963 5.62346C18.3332 6.07445 18.3332 6.62808 18.3332 7.29888V14.3677C18.3332 15.0385 18.3332 15.5922 18.2963 16.0432C18.2581 16.5116 18.1759 16.9422 17.9699 17.3466C17.6503 17.9738 17.1403 18.4838 16.5131 18.8033C16.1087 19.0094 15.6781 19.0915 15.2097 19.1298C14.7587 19.1667 14.2051 19.1667 13.5343 19.1666H6.4654C5.7946 19.1667 5.24097 19.1667 4.78998 19.1298C4.32157 19.0915 3.89098 19.0094 3.48654 18.8033C2.85933 18.4838 2.34939 17.9738 2.02982 17.3466C1.82374 16.9422 1.7416 16.5116 1.70333 16.0432C1.66648 15.5922 1.66649 15.0385 1.6665 14.3677V7.2989C1.66649 6.62809 1.66648 6.07445 1.70333 5.62346C1.7416 5.15504 1.82374 4.72446 2.02982 4.32001C2.34939 3.6928 2.85933 3.18287 3.48654 2.86329C3.89098 2.65722 4.32157 2.57508 4.78998 2.53681C5.09066 2.51224 5.43695 2.50406 5.83317 2.50133V1.66665C5.83317 1.20641 6.20627 0.833313 6.6665 0.833313ZM5.83317 4.16811C5.4619 4.17072 5.17036 4.17795 4.9257 4.19794C4.56036 4.22779 4.37352 4.28189 4.24319 4.3483C3.92958 4.50809 3.67462 4.76306 3.51483 5.07666C3.44842 5.207 3.39431 5.39383 3.36446 5.75918C3.33382 6.13425 3.33317 6.6195 3.33317 7.33331V7.49998H16.6665V7.33331C16.6665 6.6195 16.6659 6.13425 16.6352 5.75918C16.6054 5.39383 16.5513 5.207 16.4848 5.07666C16.3251 4.76306 16.0701 4.50809 15.7565 4.3483C15.6262 4.28189 15.4393 4.22779 15.074 4.19794C14.8293 4.17795 14.5378 4.17072 14.1665 4.16811V4.99998C14.1665 5.46022 13.7934 5.83331 13.3332 5.83331C12.8729 5.83331 12.4998 5.46022 12.4998 4.99998V4.16665H7.49984V4.99998C7.49984 5.46022 7.12674 5.83331 6.6665 5.83331C6.20627 5.83331 5.83317 5.46022 5.83317 4.99998V4.16811ZM16.6665 9.16665H3.33317V14.3333C3.33317 15.0471 3.33382 15.5324 3.36446 15.9074C3.39431 16.2728 3.44842 16.4596 3.51483 16.59C3.67462 16.9036 3.92958 17.1585 4.24319 17.3183C4.37352 17.3847 4.56036 17.4388 4.9257 17.4687C5.30078 17.4993 5.78602 17.5 6.49984 17.5H13.4998C14.2137 17.5 14.6989 17.4993 15.074 17.4687C15.4393 17.4388 15.6262 17.3847 15.7565 17.3183C16.0701 17.1585 16.3251 16.9036 16.4848 16.59C16.5513 16.4596 16.6054 16.2728 16.6352 15.9074C16.6659 15.5324 16.6665 15.0471 16.6665 14.3333V9.16665Z" fill="#C9CACC"/>
</svg>
